96e544691ecaeb5c49fcbd9351e47af8 *tests/data/fate/matroska-move-cues-to-front.matroska
23147910 tests/data/fate/matroska-move-cues-to-front.matroska
#tb 0: 1/1000
#media_type 0: audio
#codec_id 0: pcm_s24be
#sample_rate 0: 192000
#channel_layout_name 0: stereo
#tb 1: 1/1000
#media_type 1: audio
#codec_id 1: pcm_s24le
#sample_rate 1: 192000
#channel_layout_name 1: stereo
0,          0,          0,        5,     6144, 0x0afd2eda
1,          0,          0,        5,     6144, 0x1f592eda
0,          5,          5,        5,     6144, 0xd5e16fb3
1,          5,          5,        5,     6144, 0x5c796fb3
0,         11,         11,        5,     6144, 0xf0341c51
1,         11,         11,        5,     6144, 0x22fc1c51
0,         16,         16,        5,     6144, 0x444ebbe2
1,         16,         16,        5,     6144, 0x5856bbe2
0,         21,         21,        5,     6144, 0x03f10fa9
1,         21,         21,        5,     6144, 0x022d0fa9
0,         27,         27,        5,     6144, 0x153c7242
1,         27,         27,        5,     6144, 0x2a1d7242
0,         32,         32,        5,     6144, 0x23c5c2ce
1,         32,         32,        5,     6144, 0xf37ec2ce
0,         37,         37,        5,     6144, 0xea76f227
1,         37,         37,        5,     6144, 0xc5f6f227
0,         43,         43,        5,     6144, 0x1bf8d257
1,         43,         43,        5,     6144, 0x1a84d257
0,         48,         48,        5,     6144, 0xbf3bf14c
1,         48,         48,        5,     6144, 0xe788f14c
0,         53,         53,        5,     6144, 0x1d32dad7
1,         53,         53,        5,     6144, 0x0d65dad7
0,         59,         59,        5,     6144, 0x2e4963b5
1,         59,         59,        5,     6144, 0xd92c63b5
0,         64,         64,        5,     6144, 0x9e011e0d
1,         64,         64,        5,     6144, 0xa8121e0d
0,         69,         69,        5,     6144, 0x2177e43b
1,         69,         69,        5,     6144, 0x0703e43b
0,         75,         75,        5,     6144, 0xafc63815
1,         75,         75,        5,     6144, 0x3c0c3815
0,         80,         80,        5,     6144, 0xab1af266
1,         80,         80,        5,     6144, 0x063ff266
0,         85,         85,        5,     6144, 0xf4c77215
1,         85,         85,        5,     6144, 0x284e7215
0,         91,         91,        5,     6144, 0x584cf52e
1,         91,         91,        5,     6144, 0x0b11f52e
0,         96,         96,        5,     6144, 0x9f7e22b5
1,         96,         96,        5,     6144, 0x35c622b5
